<svg width="280" height="234" viewBox="0 0 280 234" fill="none" xmlns="http://www.w3.org/2000/svg">
<path d="M107.548 5.08593C109.889 5.08593 111.759 6.40937 112.755 8.56406C113.455 10.0734 113.761 11.9875 113.783 14.4047V14.5906V186.911C113.772 190.105 113.433 192.598 112.7 194.48C111.683 197.094 109.747 198.778 107.111 198.811H107.012L87.1172 198.789C84.4266 198.789 82.4906 197.072 81.4953 194.414C80.7953 192.544 80.4781 190.072 80.4672 186.889V42.8312L75.1078 44.1875L72.975 44.7234L72.3516 44.8766L72.0344 44.9531L71.8813 44.9859L71.8266 44.9969H71.7937H71.7719H71.7609L71.7937 44.9641C71.8047 44.9531 71.8156 44.9422 71.7937 44.9312H71.7828H71.7172C69.4641 45.0187 67.5828 43.8047 66.5547 41.7375C65.8219 40.2609 65.5047 38.3687 65.4938 35.9844V35.8094V23.2859C65.4938 21.0437 65.8547 19.1734 66.675 17.6422C67.6047 15.8922 69.0922 14.6891 70.9734 14.2078L71.0828 14.175L71.2141 14.1422L105.612 5.29375C106.105 5.17344 106.641 5.10781 107.231 5.08593H107.395H107.548ZM164.981 0.0109357C167.442 0.0109357 169.411 1.38906 170.483 3.66406C171.259 5.30469 171.609 7.42656 171.62 10.0953V10.2812V60.9219V61.0422H186.419C188.738 61.0422 190.652 62.2453 191.778 64.2797L191.833 64.3781L191.888 64.4766C192.697 66.0625 193.058 68.0969 193.069 70.6234V70.7984V77.8313C193.069 80.4125 192.708 82.4687 191.866 84.0766C190.772 86.1766 188.858 87.4125 186.528 87.4453H186.419H171.598V153.847V154.372V154.897L171.609 155.411L171.62 155.914V156.166L171.631 156.789L171.653 157.402L171.675 158.003L171.719 158.605L171.73 158.834L171.752 159.294L171.784 159.742L171.817 160.18L171.85 160.617L171.872 160.836L171.905 161.262L171.927 161.47L171.948 161.678L171.992 162.094C172.003 162.225 172.025 162.367 172.036 162.498L172.058 162.695L172.102 163.089C172.2 163.909 172.32 164.675 172.452 165.397L172.495 165.637L172.528 165.802L172.594 166.119C172.616 166.217 172.638 166.327 172.659 166.425L172.692 166.578L172.758 166.873L172.823 167.158L172.856 167.3L172.922 167.573C173.009 167.923 173.108 168.262 173.206 168.58L173.294 168.842C173.709 170.111 174.18 171.052 174.672 171.653C175.591 172.791 176.4 173.469 177.023 173.742L177.209 173.819C177.942 174.114 178.97 174.278 180.283 174.289H180.425H189.656C191.866 174.289 193.78 175.164 195.027 176.892C196.066 178.325 196.525 180.152 196.547 182.328V182.481V190.291C196.547 192.708 196.077 194.698 194.983 196.241C193.714 198.045 191.767 198.986 189.514 199.008H189.394L176.137 199.03C172.462 199.03 169.258 198.767 166.469 198.242C163.483 197.684 160.453 196.437 157.336 194.545C154.088 192.566 151.43 189.864 149.362 186.452C147.35 183.138 145.775 178.664 144.594 173.02C143.434 167.53 142.855 161.12 142.833 153.825V153.442V87.4453H136.719C134.411 87.4453 132.508 86.275 131.381 84.2625L131.327 84.1641L131.272 84.0656C130.452 82.4906 130.091 80.4891 130.069 77.9953V77.8203V70.7875C130.069 68.1734 130.43 66.0844 131.261 64.4656C132.355 62.3328 134.269 61.0641 136.609 61.0312H136.719H142.833V60.8344L145.184 10.1172L145.195 9.8875C145.359 7.2625 145.786 5.20625 146.562 3.62031C147.634 1.42187 149.483 0.04375 151.834 0H151.944H164.981V0.0109357ZM274.389 60.9984C276.577 60.9984 278.272 62.2891 279.158 64.2906C279.748 65.6469 280 67.3422 280 69.4641C280 69.5406 280 69.6172 280 69.7047V69.825L279.989 70.0766L279.978 70.2078L279.967 70.4703L279.956 70.6016L279.934 70.875C279.913 71.1047 279.891 71.3344 279.869 71.5859L279.847 71.7719L279.814 72.0891L279.77 72.4172L279.727 72.7563L279.694 73.0187L256.495 193.78L256.441 194.075L256.32 194.709L256.2 195.333L256.025 196.252L255.905 196.864L255.73 197.761L255.609 198.352L255.489 198.942L255.369 199.522L255.248 200.102L255.128 200.67L254.942 201.512L254.822 202.07L254.702 202.617L254.581 203.164L254.461 203.7L254.341 204.236L254.209 204.761L254.078 205.275L253.947 205.789L253.816 206.292L253.684 206.795L253.553 207.287L253.422 207.78L253.291 208.261L253.159 208.742L253.028 209.212L252.897 209.683L252.766 210.142L252.634 210.591L252.503 211.039L252.372 211.477L252.241 211.914L252.109 212.341L251.978 212.767L251.847 213.183L251.705 213.598L251.639 213.806L251.497 214.211L251.431 214.408L251.366 214.605L251.191 215.086L251.016 215.567L250.95 215.753L250.808 216.125L250.666 216.486C250.6 216.65 250.534 216.803 250.48 216.967L250.316 217.372L250.141 217.787C249.834 218.509 249.528 219.198 249.211 219.866L249.08 220.15L248.894 220.522L248.708 220.894C246.695 224.897 244.431 227.817 241.839 229.644C238.602 231.941 234.478 233.122 229.491 233.264L229.272 233.275H227.894C220.073 233.275 214.364 231.131 211.072 226.592L210.973 226.45L210.886 226.33L210.842 226.275C209.902 225.083 209.442 223.442 209.256 221.156L209.245 221.003L209.223 220.708L209.212 220.555L209.202 220.402L209.191 220.095L209.18 219.942L209.169 219.789L209.158 219.384L209.147 218.969V218.805V218.466V218.083V217.875V217.459V217.252V217.055L209.158 216.661L209.169 216.464L209.18 216.267L209.191 215.884L209.212 215.512L209.234 215.141C209.245 215.02 209.245 214.9 209.256 214.78L209.267 214.605L209.3 214.255L209.333 213.916C209.486 212.395 209.737 211.105 210.087 210.022C210.995 207.2 212.811 205.308 215.545 205.264H215.644H215.753H215.841L215.928 205.275L216.027 205.286L216.158 205.308L216.3 205.33L216.486 205.362L216.661 205.395L216.814 205.428L217.12 205.505L217.536 205.614L218.094 205.767L218.673 205.931L219.45 206.161L221.298 206.708L221.823 206.872L222.294 207.014L222.742 207.145L223.169 207.266L223.573 207.375L223.858 207.452L224.131 207.517L224.47 207.605L224.777 207.681L224.995 207.736L225.192 207.78L225.378 207.823L225.597 207.867L225.739 207.889L225.859 207.911L225.936 207.922L226.002 207.933H226.056H226.078H226.122C226.155 207.933 226.166 207.933 226.209 207.911C226.308 207.867 226.439 207.78 226.592 207.627C227.095 207.156 227.664 206.292 228.233 205.034C228.955 203.437 229.48 201.381 229.797 198.866L229.819 198.647L229.863 198.275L229.906 197.892L229.928 197.695L229.95 197.498L229.983 197.105C230.092 195.803 230.147 194.392 230.158 192.883V192.555V192.445V192.369L230.147 192.227L230.125 192.008L230.092 191.756L230.059 191.472L230.038 191.319L229.983 190.98L229.928 190.608L229.841 190.094L229.742 189.525L229.633 188.902L229.512 188.234L229.348 187.359L229.173 186.419L228.944 185.227L228.648 183.739L228.364 182.339L228.014 180.622L227.642 178.828L202.092 72.6141L202.048 72.2969L202.005 71.9906L201.972 71.6953L201.939 71.4109L201.895 71.0719L201.862 70.7547L201.852 70.6344L201.83 70.3938L201.808 70.1641L201.797 70.0547L201.786 69.8359L201.775 69.6172V69.5078V69.3V69.2016V68.9172C201.786 67.0359 202.016 65.5156 202.53 64.2797C203.328 62.3547 204.925 61.0641 207.025 61.0203H207.123H222.884C224.995 61.0203 226.866 61.7969 228.309 63.2844C229.644 64.6516 230.431 66.7187 230.945 69.6062L230.978 69.7703L231.022 70.0547L244.891 143.445L255.719 70.5688L255.741 70.4266C256.134 67.5062 256.802 65.3406 257.906 63.8422L257.972 63.7547L258.038 63.6672C259.372 61.9719 261.253 61.0313 263.386 60.9984H263.506H274.389ZM42.0656 5.30469C44.4063 5.30469 46.2766 6.62812 47.2719 8.78281C47.9719 10.2922 48.2781 12.2062 48.3 14.6234V14.8094V186.922C48.3 190.214 47.9719 192.773 47.2172 194.698C46.2 197.312 44.2641 198.997 41.6281 199.03H41.5297H21.6125C18.9219 199.03 16.9859 197.313 15.9906 194.655C15.2906 192.784 14.9734 190.312 14.9625 187.13V43.0719L11.1234 44.0453L8.09375 44.8L7.37187 44.975L7.05468 45.0516L6.81407 45.1063L6.67187 45.1281H6.5625L6.43125 45.1391C4.07968 45.3031 2.12188 44.0891 1.06094 41.9562C0.328126 40.4797 0.0109375 38.5984 0 36.2031V36.0281V23.5266C0 21.2844 0.36094 19.4141 1.18125 17.8828C2.11094 16.1328 3.59844 14.9297 5.47969 14.4484L5.58906 14.4156L5.72032 14.3828L40.1406 5.50156C40.6328 5.38125 41.1687 5.31563 41.7594 5.29375H41.9234H42.0656V5.30469Z" fill="black"/>
</svg>
