<svg xmlns="http://www.w3.org/2000/svg" width="24" height="24" fill="none" viewBox="0 0 24 24"><path fill="#fff" d="M12.134 23.101c6.119 0 11.08-4.96 11.08-11.079S18.252.943 12.133.943 1.055 5.903 1.055 12.023c0 6.118 4.96 11.078 11.08 11.078"/><path fill="#000" d="m8.668 4.502-4.48 13.264h2.278l1.213-3.796h4.118l1.273 3.796h2.39L10.701 4.502zm2.44 7.372H8.326l1.358-4.267zm4.81-7.372h2.15v13.264h-2.15z"/><path fill="red" d="M10.404.108C3.847.988-.773 7.038.108 13.596c.88 6.558 6.93 11.177 13.488 10.296 6.558-.88 11.177-6.93 10.296-13.488-.88-6.557-6.93-11.177-13.488-10.296M2.388 13.29a9.66 9.66 0 0 1 1.249-6.193l15.298 11.678a9.65 9.65 0 0 1-5.645 2.838c-5.3.712-10.19-3.022-10.902-8.323m17.948 3.66L5.028 5.266a9.65 9.65 0 0 1 5.682-2.877c5.3-.712 10.191 3.022 10.903 8.322a9.65 9.65 0 0 1-1.277 6.24"/></svg>